# xmcd
#
# Track frame offsets: 
#        150
#        14661
#        27962
#        41157
#        56585
#        61276
#        73631
#        87829
#        111130
#
# Disc length: 1683 seconds
#
# Revision: 0
# Processed by: cddbd v1.5.2PL0 Copyright (c) Steve Scherf et al.
# Submitted via: ExactAudioCopyFreeDBPlugin 1.0
#
DISCID=78069109
DTITLE=Tua - Narziss
DYEAR=2016
DGENRE=Rap
TTITLE0=Gehen
TTITLE1=Nur Ich
TTITLE2=Narziss
TTITLE3=2in1 (Original)
TTITLE4=Was solls
TTITLE5=Feindbild
TTITLE6=Blick
TTITLE7=Eno
TTITLE8=Staub
EXTD=
EXTT0=
EXTT1=
EXTT2=
EXTT3=
EXTT4=
EXTT5=
EXTT6=
EXTT7=
EXTT8=
PLAYORDER=
